<svg xmlns="http://www.w3.org/2000/svg"><symbol id="icons-01" viewBox="0 0 288 288"><style>.st0{fill:none;stroke:#000;stroke-width:10;stroke-miterlimit:10}.st1{fill:#231f20}</style><path d="M215.1 102.4c-2.6-7.5-9-13.2-16.9-14.7-6.2-18.4-23.6-31.7-44-31.7-20.8 0-38.5 13.8-44.3 32.7-3.6-.9-7.5-1.4-11.4-1.4C77.7 87.3 60 101 54.2 120H238c-2.2-10.1-11.1-17.7-21.8-17.7-.4.1-.8.1-1.1.1zm35.4 41.4c-1.4-4.1-5.2-6.7-9.5-6.7H48.7c-4.3 0-8.1 2.7-9.5 6.7l-25.6 73.8c-2.3 6.5 2.6 13.4 9.5 13.4h243.6c6.9 0 11.8-6.9 9.5-13.4l-25.7-73.8zM206.2 197c0 8.8-7.1 15.8-15.9 15.8-6.9 0-12.8-4.3-15-10.7h-60c-2.2 6.3-8.1 10.7-15 10.7-8.8 0-15.9-7.1-15.9-15.9 0-4.3 1.7-8.1 4.4-11l.7-.7c-3.1-2.9-5.1-7.1-5.1-11.7 0-8.8 7.1-15.8 15.9-15.8 6.9 0 12.8 4.3 15 10.7h60c2.2-6.3 8.1-10.7 15-10.7 8.8 0 15.9 7.1 15.9 15.9 0 4.6-2 8.8-5.1 11.7 3.1 2.9 5.1 7.1 5.1 11.7zm0 0" class="st0"/></symbol><symbol id="icons-02" viewBox="0 0 288 288"><style>.st0{fill:none;stroke:#000;stroke-width:10;stroke-miterlimit:10}.st1{fill:#231f20}</style><path d="M89.4 155.7l59.8 15.4-34 54.4-25.8-69.8zm170.8 16.1L199 152.6l35.4-50.6 25.8 69.8zm-83.6 6.4c.5.1 1 .2 1.5.2 1.9 0 3.7-.9 4.8-2.5l9.2-13.2 59.8 18.7-124 45.9 33.2-53.1 15.5 4zm-1-12.3l-76-19.6 121-44.8-45 64.4zm97.7 7.5L243.5 93c-1.1-2.9-3.2-5.2-6.1-6.5-2.8-1.3-6-1.4-8.9-.3l-145 53.6c-2.9 1.1-5.2 3.2-6.5 6.1-1.3 2.8-1.4 6-.3 8.9l29.7 80.4c1.1 2.9 3.2 5.2 6.1 6.5 1.6.7 3.2 1.1 4.9 1.1 1.4 0 2.7-.2 4.1-.7l145.1-53.7c5.8-2.2 8.9-8.9 6.7-15zm-199.5 60l-22 8.1c-3 1.1-4.6 4.5-3.4 7.5.9 2.4 3.1 3.8 5.5 3.8.7 0 1.4-.1 2-.4l22-8.1c3-1.1 4.6-4.5 3.4-7.5-1.1-3-4.5-4.6-7.5-3.4zm-12-49l-22 8.1c-3 1.1-4.6 4.5-3.4 7.5.9 2.4 3.1 3.8 5.5 3.8.7 0 1.4-.1 2-.4l22-8.1c3-1.1 4.6-4.5 3.4-7.5-1.1-2.9-4.5-4.5-7.5-3.4zm-30.5-12.6l-9.1 2.9c-3 1.1-4.6 4.5-3.4 7.5.9 2.4 3.1 3.8 5.5 3.8.7 0 1.4-.1 2-.4l9.1-2.9c3-1.1 4.6-4.5 3.4-7.5-1.1-3-4.5-4.6-7.5-3.4zM73.8 206l-55.6 19.5c-3 1.1-4.6 4.5-3.4 7.5.9 2.4 3.1 3.8 5.5 3.8.7 0 1.4-.1 2-.4L77.8 217c3-1.1 4.6-4.5 3.4-7.5-1-3-4.4-4.6-7.4-3.5z"/></symbol><symbol id="icons-03" viewBox="0 0 288 288"><style>.st0{fill:none;stroke:#000;stroke-width:10;stroke-miterlimit:10}.st1{fill:#231f20}</style><path d="M207.5 86.6c.3-7.2-2.3-14.5-7.8-20-10.5-10.5-27.3-10.4-37.8.1-8.3 8.3-10.1 20.4-5.2 30.6l-71.6 71.6c-10.1-5-22.3-3.1-30.6 5.2-10.5 10.4-10.5 27.4 0 37.8 5.5 5.5 12.8 8.1 20 7.8-.3 7.2 2.3 14.5 7.8 20 10.5 10.5 27.3 10.4 37.8-.1 8.3-8.3 10.1-20.4 5.1-30.6l71.6-71.6c10.1 5 22.3 3.1 30.6-5.2 10.5-10.5 10.5-27.4 0-37.9-5.4-5.4-12.7-8-19.9-7.7zm0 0" class="st0"/></symbol><symbol id="icons-04" viewBox="0 0 288 288"><style>.st0{fill:none;stroke:#000;stroke-width:10;stroke-miterlimit:10}.st1{fill:#231f20}</style><path d="M73.8 214.2c-13.9-13.9-22.8-30.9-26.7-48.7 3.3-.2 6.6-.5 10-1 25.2-3.7 50.2-16.9 70.4-37.1 20.2-20.2 33.3-45.2 37.1-70.4.5-3.3.8-6.7 1-10 18.3 4 35.2 13.2 48.7 26.8 13.3 13.3 22 29.4 26.2 46.4-3.8.1-7.8.5-11.7 1-25.2 3.7-50.2 16.9-70.4 37.1-20.2 20.2-33.3 45.2-37.1 70.4-.6 3.9-.9 7.8-1 11.7h.1c-17.6-4.2-33.6-13.2-46.6-26.2zM137.2 45c-.1 2.6-.3 5.3-.7 7.9-2.9 19.2-13.2 38.6-29.1 54.5-15.9 15.9-35.2 26.2-54.5 29.1-2.7.4-5.3.6-7.9.7 1.6-23.1 11.2-45.7 28.8-63.4 17.1-17.1 39.4-27.2 63.4-28.8zM54.3 145.8c21.2-3.2 42.4-14.4 59.8-31.8 17.3-17.3 28.6-38.5 31.8-59.8.5-3.2.8-6.4.8-9.5 3.2.1 6.3.3 9.4.7-.1 3.4-.4 6.8-.9 10.2-3.4 23.2-15.7 46.3-34.4 65.1-18.7 18.7-41.9 31-65.1 34.4-3.4.5-6.8.8-10.2.9-.4-3.1-.6-6.3-.7-9.4 3.1-.1 6.3-.3 9.5-.8zm94.2 97.4c0-3.4.2-6.8.8-10.3.4-2.6-1.4-5-4-5.4-2.6-.4-5 1.4-5.4 4-.6 3.9-.9 7.8-.9 11.5v.2c-3.2-.2-6.3-.5-9.5-.9 0-4 .4-8.1 1-12.2 3.4-23.2 15.7-46.3 34.4-65.1 18.7-18.7 41.9-31 65.1-34.4 4.1-.6 8.1-.9 12.1-1 .5 3.1.8 6.3.9 9.5-3.8 0-7.7.3-11.6.9-21.2 3.2-42.4 14.4-59.8 31.8-1.8 1.8-1.8 4.8 0 6.7 1.8 1.8 4.8 1.8 6.7 0 15.9-15.9 35.2-26.2 54.5-29.1 3.5-.5 6.9-.8 10.3-.8-1.1 23.9-10.7 47.5-28.9 65.7-17.7 17.6-40.9 27.8-65.7 28.9zm72.4-22.3c20.5-20.5 31.8-47.8 31.8-76.9s-11.3-56.3-31.8-76.9C200.3 46.6 173 35.3 144 35.3S87.7 46.6 67.1 67.1C46.6 87.7 35.3 115 35.3 144s11.3 56.3 31.8 76.9c20.5 20.5 47.8 31.8 76.9 31.8s56.3-11.3 76.9-31.8z" class="st1"/></symbol></svg>