<svg xmlns="http://www.w3.org/2000/svg"><symbol id="icons-01-01" viewBox="0 0 288 288"><path d="M266.7 236H23.1c-4.9 0-9.5-2.4-12.3-6.4-2.8-4-3.5-9.1-1.9-13.7l25.6-73.8c2.1-6 7.8-10.1 14.2-10.1H241c6.4 0 12.2 4 14.2 10.1l25.7 73.8c1.6 4.6.9 9.7-1.9 13.7s-7.4 6.4-12.3 6.4zm-218-93.9c-2.2 0-4.1 1.3-4.8 3.4l-25.6 73.8c-.6 1.6-.3 3.2.6 4.6 1 1.4 2.5 2.2 4.1 2.2h243.6c1.7 0 3.2-.8 4.1-2.2 1-1.4 1.2-3 .7-4.6l-25.7-73.9c-.7-2-2.6-3.3-4.8-3.3H48.7zm141.6 75.7c-7.7 0-14.6-4.2-18.2-10.7h-53.6c-3.7 6.5-10.6 10.7-18.2 10.7-11.5 0-20.9-9.4-20.9-20.9 0-4.2 1.3-8.2 3.6-11.7-2.3-3.4-3.6-7.5-3.6-11.7 0-11.5 9.4-20.8 20.9-20.8 7.7 0 14.6 4.2 18.2 10.7h53.6c3.7-6.5 10.6-10.7 18.2-10.7 11.5 0 20.9 9.4 20.9 20.9 0 4.2-1.3 8.3-3.6 11.7 2.3 3.4 3.6 7.5 3.6 11.7 0 11.5-9.4 20.8-20.9 20.8zm-78.6-20.7h67.1l1.2 3.4c1.5 4.5 5.6 7.3 10.3 7.3 6.1 0 10.9-4.7 10.9-10.8 0-3-1.3-6-3.5-8l-3.9-3.7 3.9-3.7c2.2-2.1 3.5-5 3.5-8 0-6-4.9-10.9-10.9-10.9-4.6 0-8.7 3-10.3 7.3l-1.2 3.4h-67.1l-1.2-3.4c-1.5-4.5-5.6-7.3-10.3-7.3-6.1 0-10.9 4.7-10.9 10.8 0 3 1.3 6 3.5 8l3.8 3.5-4.3 4.3c-1.4 1.5-3 4-3 7.5 0 6 4.9 10.9 10.9 10.9 4.6 0 8.7-3 10.3-7.3l1.2-3.3zM244.2 125H47.4l2-6.5C56 96.9 75.8 82.3 98.5 82.3c2.7 0 5.5.2 8.2.6 7.8-19 26.7-31.9 47.5-31.9 21.1 0 40 12.9 47.8 32.5 7.1 2.2 13.1 7.2 16.4 13.9 11.8 1 21.9 9.7 24.5 21.5l1.3 6.1zM61.6 115h169c-3.1-4.6-8.2-7.6-13.9-7.7-.7.1-1.2.1-1.5.1h-3.6l-1.2-3.4c-2-5.9-7.1-10.3-13.1-11.4l-2.9-.5-.9-2.8C187.8 72.4 172 61 154.2 61c-18 0-34.2 12-39.5 29.2l-1.4 4.5-4.6-1.2c-3.3-.8-6.8-1.3-10.2-1.3-15.9.1-30.1 9-36.9 22.8z"/></symbol><symbol id="icons-02-01" viewBox="0 0 288 288"><path d="M89.4 155.7l59.8 15.4-34 54.4-25.8-69.8zm170.8 16.1L199 152.6l35.4-50.6 25.8 69.8zm-83.6 6.4c.5.1 1 .2 1.5.2 1.9 0 3.7-.9 4.8-2.5l9.2-13.2 59.8 18.7-124 45.9 33.2-53.1 15.5 4zm-1-12.3l-76-19.6 121-44.8-45 64.4zm97.7 7.5L243.5 93c-1.1-2.9-3.2-5.2-6.1-6.5-2.8-1.3-6-1.4-8.9-.3l-145 53.6c-2.9 1.1-5.2 3.2-6.5 6.1-1.3 2.8-1.4 6-.3 8.9l29.7 80.4c1.1 2.9 3.2 5.2 6.1 6.5 1.6.7 3.2 1.1 4.9 1.1 1.4 0 2.7-.2 4.1-.7l145.1-53.7c5.8-2.2 8.9-8.9 6.7-15zm-199.5 60l-22 8.1c-3 1.1-4.6 4.5-3.4 7.5.9 2.4 3.1 3.8 5.5 3.8.7 0 1.4-.1 2-.4l22-8.1c3-1.1 4.6-4.5 3.4-7.5-1.1-3-4.5-4.6-7.5-3.4zm-12-49l-22 8.1c-3 1.1-4.6 4.5-3.4 7.5.9 2.4 3.1 3.8 5.5 3.8.7 0 1.4-.1 2-.4l22-8.1c3-1.1 4.6-4.5 3.4-7.5-1.1-2.9-4.5-4.5-7.5-3.4zm-30.5-12.6l-9.1 2.9c-3 1.1-4.6 4.5-3.4 7.5.9 2.4 3.1 3.8 5.5 3.8.7 0 1.4-.1 2-.4l9.1-2.9c3-1.1 4.6-4.5 3.4-7.5-1.1-3-4.5-4.6-7.5-3.4zM73.8 206l-55.6 19.5c-3 1.1-4.6 4.5-3.4 7.5.9 2.4 3.1 3.8 5.5 3.8.7 0 1.4-.1 2-.4L77.8 217c3-1.1 4.6-4.5 3.4-7.5-1-3-4.4-4.6-7.4-3.5z"/></symbol><symbol id="icons-03-01" viewBox="0 0 288 288"><path d="M101.1 252.5c-8.4 0-16.3-3.3-22.3-9.3-5.1-5.1-8.2-11.7-9.1-18.7-7-.8-13.7-4-18.7-9.1-6-6-9.3-13.9-9.3-22.4s3.3-16.5 9.4-22.5c8.8-8.8 21.6-11.6 33-7.6L151 96c-4.1-11.5-1.3-24.1 7.6-33 6-6 14-9.4 22.4-9.4h.1c8.4 0 16.3 3.3 22.3 9.3 5.1 5.1 8.2 11.7 9.1 18.7 7 .8 13.6 4 18.6 9 6 6 9.3 14 9.3 22.5s-3.3 16.5-9.3 22.5c-8.8 8.8-21.6 11.6-33 7.6L131.3 210c4.1 11.5 1.4 24.1-7.5 33-6 6-14 9.4-22.4 9.4-.2.1-.3.1-.3.1zm-21.4-38l-.2 5.4c-.3 6.1 2.1 12 6.3 16.3 4.1 4.1 9.5 6.4 15.3 6.4h.1c5.8 0 11.2-2.3 15.4-6.5 6.7-6.7 8.3-16.4 4.1-24.9l-1.6-3.2 76.7-76.7 3.2 1.6c8.4 4.1 18.1 2.5 24.8-4.3 4.1-4.1 6.4-9.6 6.4-15.4s-2.3-11.3-6.4-15.4c-4.2-4.2-10.1-6.5-16.2-6.2l-5.4.2.2-5.4c.3-6.1-2.1-12-6.3-16.3-4.1-4.1-9.5-6.4-15.3-6.4h-.1c-5.8 0-11.2 2.3-15.4 6.5-6.6 6.6-8.3 16.4-4.2 24.9l1.5 3.2L86.1 175l-3.2-1.6c-8.4-4.1-18.1-2.5-24.8 4.3-4.1 4.1-6.4 9.6-6.4 15.4s2.3 11.3 6.4 15.3c4.3 4.3 10.2 6.6 16.3 6.4l5.3-.3z"/></symbol><symbol id="icons-04-01" viewBox="0 0 288 288"><style>.st0{fill:#231f20}</style><path d="M73.8 214.2c-13.9-13.9-22.8-30.9-26.7-48.7 3.3-.2 6.6-.5 10-1 25.2-3.7 50.2-16.9 70.4-37.1s33.3-45.2 37.1-70.4c.5-3.3.8-6.7 1-10 18.3 4 35.2 13.2 48.7 26.8 13.3 13.3 22 29.4 26.2 46.4-3.8.1-7.8.5-11.7 1-25.2 3.7-50.2 16.9-70.4 37.1s-33.3 45.2-37.1 70.4c-.6 3.9-.9 7.8-1 11.7h.1c-17.6-4.2-33.6-13.2-46.6-26.2zM137.2 45c-.1 2.6-.3 5.3-.7 7.9-2.9 19.2-13.2 38.6-29.1 54.5s-35.2 26.2-54.5 29.1c-2.7.4-5.3.6-7.9.7 1.6-23.1 11.2-45.7 28.8-63.4 17.1-17.1 39.4-27.2 63.4-28.8zM54.3 145.8c21.2-3.2 42.4-14.4 59.8-31.8 17.3-17.3 28.6-38.5 31.8-59.8.5-3.2.8-6.4.8-9.5 3.2.1 6.3.3 9.4.7-.1 3.4-.4 6.8-.9 10.2-3.4 23.2-15.7 46.3-34.4 65.1-18.7 18.7-41.9 31-65.1 34.4-3.4.5-6.8.8-10.2.9-.4-3.1-.6-6.3-.7-9.4 3.1-.1 6.3-.3 9.5-.8zm94.2 97.4c0-3.4.2-6.8.8-10.3.4-2.6-1.4-5-4-5.4s-5 1.4-5.4 4c-.6 3.9-.9 7.8-.9 11.5v.2c-3.2-.2-6.3-.5-9.5-.9 0-4 .4-8.1 1-12.2 3.4-23.2 15.7-46.3 34.4-65.1 18.7-18.7 41.9-31 65.1-34.4 4.1-.6 8.1-.9 12.1-1 .5 3.1.8 6.3.9 9.5-3.8 0-7.7.3-11.6.9-21.2 3.2-42.4 14.4-59.8 31.8-1.8 1.8-1.8 4.8 0 6.7 1.8 1.8 4.8 1.8 6.7 0 15.9-15.9 35.2-26.2 54.5-29.1 3.5-.5 6.9-.8 10.3-.8-1.1 23.9-10.7 47.5-28.9 65.7-17.7 17.6-40.9 27.8-65.7 28.9zm72.4-22.3c20.5-20.5 31.8-47.8 31.8-76.9s-11.3-56.3-31.8-76.9C200.3 46.6 173 35.3 144 35.3S87.7 46.6 67.1 67.1C46.6 87.7 35.3 115 35.3 144s11.3 56.3 31.8 76.9c20.5 20.5 47.8 31.8 76.9 31.8s56.3-11.3 76.9-31.8z" class="st0"/></symbol></svg>