<svg xmlns="http://www.w3.org/2000/svg" xmlns:xlink="http://www.w3.org/1999/xlink" width="250" height="159.7" viewBox="0 0 250 159.7"><defs><linearGradient id="linear-gradient" x1="193.19" y1="101.06" x2="49.24" y2="43.31" gradientUnits="userSpaceOnUse"><stop offset="0" stop-color="#ed1e79"/><stop offset="1" stop-color="#ff7bac"/></linearGradient></defs><title>Asset 12</title><g id="Layer_2" data-name="Layer 2"><g id="Layer_1-2" data-name="Layer 1"><path d="M201.6,67.1,182,51.5,168.9,62.3H147.6c-.6,2.7-2.1,6.9-5.9,9.4a13.6,13.6,0,0,1-7.6,2.1,26.1,26.1,0,0,1-8.7-1.7,26.1,26.1,0,0,1-8.7,1.7,13.5,13.5,0,0,1-7.6-2.1c-3.9-2.5-5.4-6.7-5.9-9.4H81.7L68.5,51.5,49,67.1l5.6,6.7L49,80.5,68.5,96.1,81.7,85.4h87.2L182,96.1l19.6-15.6-5.6-6.7Z" fill="url(#linear-gradient)"/><path d="M87.4,45.2a21.4,21.4,0,0,0,7.6-1.5l.2-.3c-.5,5.8.5,11.5,4.5,15.7h6.5v.5c0,.1.3,6.5,4.8,9.5a10.3,10.3,0,0,0,5.8,1.6,23.4,23.4,0,0,0,8.1-1.7c-3-1.8-16.1-10.2-10.7-16.8,2.1-2.5,4-3.3,5.6-3.3,3.3,0,5.4,3.3,5.4,3.3s2.1-3.3,5.4-3.3c1.6,0,3.5.8,5.6,3.3,5.4,6.5-7.1,14.7-10.5,16.7a23.8,23.8,0,0,0,8.4,1.8,10.3,10.3,0,0,0,5.8-1.6c4.6-3,4.8-9.4,4.8-9.5V59h6.5c3.9-4,4.9-9.6,4.5-15.3a21.3,21.3,0,0,0,7.5,1.5c12,0,15.1-13.4,15.1-13.4L145.7,0,133,12.1H117.6L104.8,0,72.3,31.8S75.4,45.2,87.4,45.2Z" fill="#ff7bac"/><path d="M133,12.1H117.6L104.8,0,72.3,31.8s3.1,13.4,15.1,13.4a21.4,21.4,0,0,0,7.6-1.5l.2-.3c-.5,5.8.5,11.5,4.5,15.7h6.5v.5c0,.1.3,6.5,4.8,9.5a10.3,10.3,0,0,0,5.8,1.6,23.4,23.4,0,0,0,8.1-1.7c-3-1.8-16.1-10.2-10.7-16.8,2.1-2.5,4-3.3,5.6-3.3,3.3,0,5.4,3.3,5.4,3.3s2.1-3.3,5.4-3.3c1.6,0,3.5.8,5.6,3.3,5.4,6.5-7.1,14.7-10.5,16.7a23.8,23.8,0,0,0,8.4,1.8,10.3,10.3,0,0,0,5.8-1.6c4.6-3,4.8-9.4,4.8-9.5V59h6.5c3.9-4,4.9-9.6,4.5-15.3a21.3,21.3,0,0,0,7.5,1.5c12,0,15.1-13.4,15.1-13.4L145.7,0Z" fill="#363689"/><path d="M25.2,151.9c-3.3,0-5.7-2.5-8.2-5.1a10.8,10.8,0,0,1-9.2,4.7c-5.2,0-7.8-3.1-7.8-6.6s2.4-6.3,6.9-6.3c2,0,4.6,1.1,7.3,2.5.9-2,1.8-4.4,3-7.3-7.9-1-13.6-5.5-13.6-13.4s5.4-19.6,13-19.6c3.7,0,5.6,2.5,5.6,5.6,0,8.7-5.9,15.6-8.6,15.6a1.2,1.2,0,0,1-1.2-.9c2.3-3,5.9-12.2,5.9-16.5,0-1.1-.3-1.8-.8-2.1C13.8,103.9,9,113.5,9,120.5s2.2,9.7,9.1,11.2c3.6-9.3,8.4-21.6,12-28.1,1.6-2.9,4.5-7.3,7.6-7.3a7.1,7.1,0,0,1,7,7.2c0,10.2-7.4,28.1-21.3,30.3a94.1,94.1,0,0,1-4.6,10.1c3.2,1.9,5.9,2.9,8.1,2.9s4.1-1.4,5-4c.8,0,1.1.5,1.1,1.6a7.8,7.8,0,0,1-7.9,7.5ZM7.9,149.6c2.1-1.1,3.7-3.1,5.2-6.2a13.4,13.4,0,0,0-5.6-2.6c-1.7.7-2.5,2.4-2.5,4.4S6,149.1,7.9,149.6Zm16.5-18.2c10.3-3.9,15.5-21.9,15.5-29.4,0-1.7-.3-2.9-.8-3.2-3,1.2-9,17.5-12.5,27.1Z" fill="#363689"/><path d="M38.2,135.5c0-5,3.2-12.6,6.6-17.6a4.7,4.7,0,0,1,3.6-2.2,2.9,2.9,0,0,1,2.1.9c-3.5,5.7-7.4,16.9-7.4,21a4.1,4.1,0,0,0,.9,2.8c2.6-.7,9.5-16.7,9.3-24.7-2.8-.5-4.7-1.8-4.7-3.4a3.3,3.3,0,0,1,2.8-2.4c2.4,0,5.2,2.2,6.3,4.8h6.7a2,2,0,0,1,.1.7c0,1-1.2,1.7-3,1.7a10,10,0,0,1-3.4-.6,1.8,1.8,0,0,1,.1.5c0,7.4-6.7,25.4-14.2,25.4C40.5,142.2,38.2,139.9,38.2,135.5Z" fill="#363689"/><path d="M49.9,153.2c0-3.3,2.2-6.7,9.5-8.2l5-1.2c1.6-4.3,3.1-8.8,4.4-12.1-2.6,5.7-5.4,10-8.2,10s-4.4-1-4.4-3.7c0-5.5,7.5-18,7.6-21.9l-2.1.3c-1.1,0-1.5-.4-1.5-1a1.9,1.9,0,0,1,.2-.7c1.6.1,3.2-.3,4.6-.3s2.9,1.1,2.9,4.1-7.5,17.5-7,20.4c3.3-.2,9.9-13.4,13.5-24.3h1.5c1.6,0,2.8.3,2.8,1.3s-2,6.3-3.7,11.4c-.7,2.1-2.4,7.2-4.7,13.4,6.3-5.8,9.5-13.2,12.9-21.3.4-.1.4.1.4.3,0,2.7-6.2,19.3-14.1,23.2-.9,2.4-1.8,4.9-2.9,7.4-2.2,5.5-6.1,9.2-9.1,9.2C52.5,159.7,49.9,156.6,49.9,153.2Zm13.8-7.4-2.3.9c-4,1.4-6.6,2.8-6.6,5.9a4.1,4.1,0,0,0,3.9,4.3C59.9,155.9,61.7,151.2,63.7,145.8Z" fill="#363689"/><path d="M86.9,139c0-1.4,1.2-4.2,2.3-7.4-3,5.9-5.4,10.6-8,10.6a4.6,4.6,0,0,1-4.3-4.3c0-3.1,1.2-7.6,2.8-11.7,2.5-6.3,5.5-12.2,9.2-12.2a4.9,4.9,0,0,1,4.4,4.7l1.6-4.2c2.2-.1,4,.1,4,2.1s-1.6,6-3.4,10.7-4.3,10.2-4.9,12.6c3.5-1.4,9.7-12.3,13.1-20.6.4-.1.4.1.4.3,0,2.7-8.8,22.5-14,22.5A3.6,3.6,0,0,1,86.9,139Zm2.2-10.7c1.3-2.8,2.9-5.9,2.9-7.9s-.8-2.9-1.7-2.9-2.4,2.2-6.1,11.3c-2,4.8-3,9.6-2.8,11.1C83.4,138.9,86.3,133.9,89.1,128.3Z" fill="#363689"/><path d="M97.7,137.9c0-10,12.5-41.3,20.3-41.3a2.9,2.9,0,0,1,2.5,2.7c0,7.2-8.7,26.7-15.9,28.6-1.2,4-2.1,7.3-2.1,9.5a4.6,4.6,0,0,0,.5,2.3c2.3-1.1,4.3-3.8,5.7-6.5.4-.1.8.1.8.6,0,2.3-4.2,8.5-7.5,8.5A4.6,4.6,0,0,1,97.7,137.9Zm7.6-12c4.6-2.9,14.1-26.1,13.4-27.4-2.3.9-7.9,11.8-11.7,22.3C106.5,122.5,105.9,124.2,105.3,125.9Z" fill="#363689"/><path d="M151.6,151.9c-4.1,0-3.9-5-3.6-9.8.2-3.1.3-6.1-.7-7.6h-1.2c-3.7,9.6-8.4,17.1-16.6,17.1s-10.9-6.1-10.8-13c.1-8.8,5.6-19,14.4-19,4.1,0,6,3.3,6,7.3,0,6.5-4.1,14.3-9.9,14.3-1,0-1.9-.4-2.1-1.2,4.5-3.7,8-11.2,8-15.8a3.7,3.7,0,0,0-1-2.9c-5.9,1.7-9.8,10.4-9.8,17.9,0,4.8,1.7,9.1,5.5,10.6,7.4-4,11.2-15.5,15.6-28.1l3.1-8.7c1.5-4.1,3.6-5.9,5.6-5.9a1.6,1.6,0,0,1,1.7,1c-1.2.9-2,3.7-2.4,4.7-2.2,6.2-4.1,13-6.2,19.3a2.6,2.6,0,0,1,1.1.8c6.4-3.9,13.5-19,13.6-28.6,0-2.2-.3-4-1.4-5.1-7.8,0-19.4,15.5-28.6,15.5-4.2,0-5.9-2.9-5.9-6.2,0-1.6.7-2.9,2-3,.5,1.7,1.4,3.5,4.1,3.5,6.6,0,19.8-12.3,26.9-12.3s8.5,4.4,8.5,8.7c0,7.4-7.1,25.4-17.5,28.8,2.7,1.8,3.5,5.3,3.3,9.8-.1,2.2,0,4.2.4,5.1a5.2,5.2,0,0,0,2.3-1.3c.5.1.8.3.8,1S154.3,151.9,151.6,151.9Z" fill="#363689"/><path d="M186.4,117.4c.5-.1,1.1.1,1.1.7,0,2.2-7.8,24.3-18.2,24.3-4.2,0-7.7-2.5-7.7-6.2,0-5.5,3.1-14.5,7.3-19.3a7.3,7.3,0,0,1,5.7-2.8c2.8,0,5.8,1.4,5.8,5.3s-5.5,15.6-12.2,15.6l-1.5-.2c-.1.6-.1,1.1-.1,1.6a3.4,3.4,0,0,0,2.3,3.5C174,138.8,182.3,127.3,186.4,117.4Zm-19.3,15.8c4.9-.8,9.7-11.9,9.7-15.8a1.6,1.6,0,0,0-.4-1.2C173.8,116.3,168.6,126.5,167.1,133.2Z" fill="#363689"/><path d="M183.5,142.3c-4.1,0-6.1-2.3-6.1-4.4a2.2,2.2,0,0,1,1.8-2.5c1,1.7,2.5,4,3.6,4.6,1.7-1.6,3.3-7.3,3.7-18.8.1-1.4-.8-1.6-.8-2.2a1,1,0,0,1,.1-.4c3.5-8.9,5.2-12.1,8-12.1s3.3,2.1,3.9,4.4c-3.2,1.5-8.6,3.8-8.6,7s1.8,7.9,1.7,13a17.9,17.9,0,0,1-.7,5c3.1-4,6.2-10.8,8.6-16.4.4-.1.4.1.4.3C199.1,122.6,191.9,142.3,183.5,142.3Z" fill="#363689"/><path d="M200.2,142.3c-4.3,0-7.6-2.5-7.6-6.3,0-6.2,3.4-17.1,8.5-21a7.3,7.3,0,0,1,3.8-1c3.2,0,6.1,2,6.1,6s-2.4,11.1-6.5,11.1a2.3,2.3,0,0,1-2.2-1.5c1.7-2,4.7-8.9,4.7-12.2,0-.7-.1-1.2-.4-1.4-2.8.2-8.7,13.3-8.7,20a4.3,4.3,0,0,0,1.3,3.5c7-1.2,13.3-11.8,16.8-20,.4-.1.4.1.4.3C216.5,122.6,207.5,142.3,200.2,142.3Z" fill="#363689"/><path d="M213.6,142.5c-1.7,0-4.2-1-4.2-3.6,0-5.7,7.2-18.9,7.8-22.7a8.9,8.9,0,0,1-2.3.4c-1,0-1.4-.4-1.4-.9a2.1,2.1,0,0,1,.2-.8c1.6.1,3.2-.3,4.6-.3a3.3,3.3,0,0,1,3.4,3.6c0,3-7.5,16.8-7.5,21.2a1.7,1.7,0,0,0,.1.5c2.1-.1,5.8-5.5,8.9-11.9a123.7,123.7,0,0,0,5.2-13.1l2-.2c1.2,0,2.1.4,2.1,1.4s-1.6,6.5-3.5,11.4-4.4,10.4-5.1,12.5c5.4-2.2,10.4-12.4,13.8-20.4.4-.1.4.1.4.3,0,2.7-8.3,22.5-14.7,22.5a3.4,3.4,0,0,1-3.5-3.2,16.7,16.7,0,0,1,1.5-4.9C218.4,139.6,215.7,142.5,213.6,142.5Z" fill="#363689"/><path d="M238.9,142.3c-4.2,0-7.7-2.5-7.7-6.2,0-5.5,3.1-14.5,7.3-19.3a7.3,7.3,0,0,1,5.7-2.8c2.8,0,5.8,1.4,5.8,5.3s-5.5,15.6-12.2,15.6l-1.5-.2c-.1.6-.1,1.1-.1,1.6a3.3,3.3,0,0,0,1.9,3.3c3.6-.4,6.7-3.5,8.5-6.6.4-.1.8.1.8.6C247.3,136.1,242.6,142.3,238.9,142.3Zm-2.3-9.1c4.9-.8,9.7-11.9,9.7-15.8a1.6,1.6,0,0,0-.4-1.2C243.3,116.3,238.1,126.5,236.6,133.2Z" fill="#363689"/></g></g></svg>