<svg xmlns="http://www.w3.org/2000/svg" width="62.6" height="58.7" viewBox="0 0 62.6 58.7"><defs><linearGradient id="a" x1="59.1" x2=".11" y1="41.41" y2="17.75" gradientUnits="userSpaceOnUse"><stop offset="0" stop-color="#ed1e79"/><stop offset="1" stop-color="#ff7bac"/></linearGradient></defs><g data-name="Layer 1"><path fill="url(#a)" d="M62.6 27.5l-8-6.4-5.4 4.4h-8.8a6.1 6.1 0 0 1-2.4 3.9 5.6 5.6 0 0 1-3.1.9 10.7 10.7 0 0 1-3.6-.7 10.7 10.7 0 0 1-3.6.7 5.5 5.5 0 0 1-3.1-.9 6.1 6.1 0 0 1-2.4-3.9h-8.8L8 21.1l-8 6.4 2.3 2.7L0 33l8 6.4 5.4-4.4h35.7l5.4 4.4 8-6.4-2.3-2.7z"/><path fill="#ff7bac" d="M15.7 18.5a8.8 8.8 0 0 0 3.1-.6h.1a7.9 7.9 0 0 0 1.8 6.4h2.6v.2a5.3 5.3 0 0 0 2 3.9 4.2 4.2 0 0 0 2.4.6 9.6 9.6 0 0 0 3.3-.7c-1.2-.7-6.6-4.2-4.4-6.9A3.1 3.1 0 0 1 29 20a3 3 0 0 1 2.2 1.4 3 3 0 0 1 2.2-1.4 3.1 3.1 0 0 1 2.3 1.4c2.2 2.7-2.9 6-4.3 6.8a9.8 9.8 0 0 0 3.5.8 4.2 4.2 0 0 0 2.4-.6 5.3 5.3 0 0 0 2-3.9v-.2h2.6a7.9 7.9 0 0 0 1.8-6.3 8.7 8.7 0 0 0 3.1.6C51.7 18.5 53 13 53 13L39.7 0l-5.3 4.9h-6.3L22.9 0 9.6 13s1.2 5.5 6.1 5.5z"/><path fill="#363689" d="M34.4 4.9h-6.3L22.9 0 9.6 13s1.3 5.5 6.2 5.5a8.8 8.8 0 0 0 3.1-.6h.1a7.9 7.9 0 0 0 1.8 6.4h2.6v.2a5.3 5.3 0 0 0 2 3.9 4.2 4.2 0 0 0 2.4.6 9.6 9.6 0 0 0 3.3-.7c-1.2-.7-6.6-4.2-4.4-6.9A3.1 3.1 0 0 1 29 20a3 3 0 0 1 2.2 1.4 3 3 0 0 1 2.2-1.4 3.1 3.1 0 0 1 2.3 1.4c2.2 2.7-2.9 6-4.3 6.8a9.8 9.8 0 0 0 3.5.8 4.2 4.2 0 0 0 2.4-.6 5.3 5.3 0 0 0 2-3.9v-.2h2.6a7.9 7.9 0 0 0 1.8-6.3 8.7 8.7 0 0 0 3.1.6C51.7 18.5 53 13 53 13L39.7 0zM22.1 58.6c-1.4 0-2.4-1.1-3.4-2.1a4.5 4.5 0 0 1-3.8 1.9c-2.2 0-3.2-1.3-3.2-2.7a2.6 2.6 0 0 1 2.9-2.6 7.4 7.4 0 0 1 3.1 1.1l1.3-3.1c-3.3-.4-5.7-2.3-5.7-5.6s2.3-8.2 5.4-8.2a2.2 2.2 0 0 1 2.3 2.4c0 3.6-2.4 6.5-3.6 6.5a.5.5 0 0 1-.5-.4 16.8 16.8 0 0 0 2.5-6.9c0-.5-.1-.8-.3-.9s-3.6 4.6-3.6 7.6.9 4.1 3.8 4.7a125.5 125.5 0 0 1 5-11.8c.7-1.2 1.9-3.1 3.2-3.1a3 3 0 0 1 2.9 3c0 4.3-3.1 11.7-8.9 12.7a39.3 39.3 0 0 1-1.9 4.2 7 7 0 0 0 3.4 1.2 2.2 2.2 0 0 0 2.1-1.7c.3 0 .5.2.5.7a3.3 3.3 0 0 1-3.3 3.1zm-7.2-1a5.5 5.5 0 0 0 2.1-2.5 5.6 5.6 0 0 0-2.3-1.1 1.8 1.8 0 0 0-1 1.9 1.7 1.7 0 0 0 1.2 1.8zm6.9-7.6c4.3-1.6 6.5-9.1 6.5-12.3 0-.7-.1-1.2-.3-1.3s-3.8 7.3-5.2 11.3zm20.4 8.6c-1.7 0-1.6-2.1-1.5-4.1a6.4 6.4 0 0 0-.3-3.2h-.5c-1.5 4-3.5 7.1-6.9 7.1s-4.6-2.5-4.5-5.4 2.4-7.9 6-7.9c1.7 0 2.5 1.4 2.5 3s-1.7 6-4.1 6c-.4 0-.8-.2-.9-.5a10.2 10.2 0 0 0 3.2-6.6 1.5 1.5 0 0 0-.4-1.2c-2.4.7-4.1 4.3-4.1 7.5s.7 3.8 2.3 4.4c3.1-1.7 4.7-6.5 6.5-11.7l1.3-3.6c.6-1.7 1.5-2.5 2.3-2.5a.7.7 0 0 1 .7.4 4.9 4.9 0 0 0-1 2c-.9 2.6-1.7 5.4-2.6 8l.5.3c2.7-1.6 5.6-7.9 5.7-12a3 3 0 0 0-.6-2.1c-3.2 0-8.1 6.5-11.9 6.5a2.3 2.3 0 0 1-2.4-2.6c0-.7.3-1.2.8-1.2a1.7 1.7 0 0 0 1.7 1.4c2.8 0 8.3-5.1 11.2-5.1a3.4 3.4 0 0 1 3.6 3.6c0 3.1-3 10.6-7.3 12 1.1.7 1.4 2.2 1.4 4.1a6 6 0 0 0 .2 2.1 2.2 2.2 0 0 0 1-.5c.2 0 .3.1.3.4s-1.1 1.4-2.2 1.4z"/></g></svg>