<svg xmlns="http://www.w3.org/2000/svg" xmlns:xlink="http://www.w3.org/1999/xlink" width="30.6" height="19.2" viewBox="0 0 30.6 19.2"><defs><linearGradient id="linear-gradient" x1="28.87" y1="20.23" x2="0.06" y2="8.67" gradientUnits="userSpaceOnUse"><stop offset="0" stop-color="#ed1e79"/><stop offset="1" stop-color="#ff7bac"/></linearGradient></defs><title>Asset 14</title><g id="Layer_2" data-name="Layer 2"><g id="Layer_1-2" data-name="Layer 1"><path d="M30.6,13.4l-3.9-3.1L24,12.5H19.8a3,3,0,0,1-1.2,1.9,2.7,2.7,0,0,1-1.5.4,5.2,5.2,0,0,1-1.7-.3,5.2,5.2,0,0,1-1.7.3,2.7,2.7,0,0,1-1.5-.4,3,3,0,0,1-1.2-1.9H6.6L3.9,10.3,0,13.4l1.1,1.3L0,16.1l3.9,3.1,2.6-2.1H24l2.6,2.1,3.9-3.1-1.1-1.3Z" fill="url(#linear-gradient)"/><path d="M7.7,9a4.3,4.3,0,0,0,1.5-.3h0a3.9,3.9,0,0,0,.9,3.1h1.3a2.6,2.6,0,0,0,1,1.9,2.1,2.1,0,0,0,1.2.3l1.6-.3c-.6-.4-3.2-2-2.1-3.4a1.5,1.5,0,0,1,1.1-.7,1.5,1.5,0,0,1,1.1.7,1.5,1.5,0,0,1,1.1-.7,1.5,1.5,0,0,1,1.1.7c1.1,1.3-1.4,2.9-2.1,3.3a4.8,4.8,0,0,0,1.7.4,2.1,2.1,0,0,0,1.2-.3,2.6,2.6,0,0,0,1-1.9h1.3a3.8,3.8,0,0,0,.9-3.1l1.5.3c2.4,0,3-2.7,3-2.7L19.4,0,16.8,2.4H13.7L11.2,0,4.7,6.4S5.3,9,7.7,9Z" fill="#ff7bac"/><path d="M16.8,2.4H13.7L11.2,0,4.7,6.4S5.3,9,7.7,9a4.3,4.3,0,0,0,1.5-.3h0a3.9,3.9,0,0,0,.9,3.1h1.3a2.6,2.6,0,0,0,1,1.9,2.1,2.1,0,0,0,1.2.3l1.6-.3c-.6-.4-3.2-2-2.1-3.4a1.5,1.5,0,0,1,1.1-.7,1.5,1.5,0,0,1,1.1.7,1.5,1.5,0,0,1,1.1-.7,1.5,1.5,0,0,1,1.1.7c1.1,1.3-1.4,2.9-2.1,3.3a4.8,4.8,0,0,0,1.7.4,2.1,2.1,0,0,0,1.2-.3,2.6,2.6,0,0,0,1-1.9h1.3a3.8,3.8,0,0,0,.9-3.1l1.5.3c2.4,0,3-2.7,3-2.7L19.4,0Z" fill="#363689"/></g></g></svg>