<svg xmlns="http://www.w3.org/2000/svg" width="14.6" height="9.2" viewBox="0 0 14.6 9.2"><title>Asset 15</title><g id="Layer_2" data-name="Layer 2"><g id="Layer_1-2" data-name="Layer 1"><path d="M14.6,6.4,12.7,4.9,11.5,6h-2a1.4,1.4,0,0,1-.6.9l-.7.2-.8-.2-.8.2-.7-.2A1.4,1.4,0,0,1,5.2,6H3.1l-1.3-1L0,6.4l.5.6L0,7.7,1.9,9.2l1.3-1h8.3l1.3,1,1.9-1.5-.5-.6Z" fill="#ff7bac"/><path d="M3.7,4.3h.7a1.9,1.9,0,0,0,.4,1.5h.6a1.2,1.2,0,0,0,.5.9l.6.2.8-.2c-.3-.2-1.5-1-1-1.6a.7.7,0,0,1,.5-.3.7.7,0,0,1,.5.3.7.7,0,0,1,.5-.3.7.7,0,0,1,.5.3c.5.6-.7,1.4-1,1.6l.8.2.6-.2a1.2,1.2,0,0,0,.5-.9h.6a1.8,1.8,0,0,0,.4-1.5h.7c1.1,0,1.4-1.3,1.4-1.3L9.3,0,8,1.2H6.6L5.3,0,2.2,3S2.5,4.3,3.7,4.3Z" fill="#ff7bac"/><path d="M8,1.2H6.6L5.3,0,2.2,3s.3,1.3,1.4,1.3h.7a1.9,1.9,0,0,0,.4,1.5h.6a1.2,1.2,0,0,0,.5.9l.6.2.8-.2c-.3-.2-1.5-1-1-1.6a.7.7,0,0,1,.5-.3.7.7,0,0,1,.5.3.7.7,0,0,1,.5-.3.7.7,0,0,1,.5.3c.5.6-.7,1.4-1,1.6l.8.2.6-.2a1.2,1.2,0,0,0,.5-.9h.6a1.8,1.8,0,0,0,.4-1.5h.7c1.1,0,1.4-1.3,1.4-1.3L9.3,0Z" fill="#363689"/></g></g></svg>