<svg xmlns="http://www.w3.org/2000/svg" width="30.6" height="19.2" viewBox="0 0 30.6 19.2"><defs><linearGradient id="a" x1="28.87" x2=".06" y1="20.23" y2="8.67" gradientUnits="userSpaceOnUse"><stop offset="0" stop-color="#ed1e79"/><stop offset="1" stop-color="#ff7bac"/></linearGradient></defs><g data-name="Layer 1"><path fill="url(#a)" d="M30.6 13.4l-3.9-3.1-2.7 2.2h-4.2a3 3 0 0 1-1.2 1.9 2.7 2.7 0 0 1-1.5.4 5.2 5.2 0 0 1-1.7-.3 5.2 5.2 0 0 1-1.7.3 2.7 2.7 0 0 1-1.5-.4 3 3 0 0 1-1.2-1.9H6.6l-2.7-2.2L0 13.4l1.1 1.3L0 16.1l3.9 3.1 2.6-2.1H24l2.6 2.1 3.9-3.1-1.1-1.3z"/><path fill="#ff7bac" d="M7.7 9a4.3 4.3 0 0 0 1.5-.3 3.9 3.9 0 0 0 .9 3.1h1.3a2.6 2.6 0 0 0 1 1.9 2.1 2.1 0 0 0 1.2.3l1.6-.3c-.6-.4-3.2-2-2.1-3.4a1.5 1.5 0 0 1 1.1-.7 1.5 1.5 0 0 1 1.1.7 1.5 1.5 0 0 1 1.1-.7 1.5 1.5 0 0 1 1.1.7c1.1 1.3-1.4 2.9-2.1 3.3a4.8 4.8 0 0 0 1.7.4 2.1 2.1 0 0 0 1.2-.3 2.6 2.6 0 0 0 1-1.9h1.3a3.8 3.8 0 0 0 .9-3.1L23 9c2.4 0 3-2.7 3-2.7L19.4 0l-2.6 2.4h-3.1L11.2 0 4.7 6.4S5.3 9 7.7 9z"/><path fill="#363689" d="M16.8 2.4h-3.1L11.2 0 4.7 6.4S5.3 9 7.7 9a4.3 4.3 0 0 0 1.5-.3 3.9 3.9 0 0 0 .9 3.1h1.3a2.6 2.6 0 0 0 1 1.9 2.1 2.1 0 0 0 1.2.3l1.6-.3c-.6-.4-3.2-2-2.1-3.4a1.5 1.5 0 0 1 1.1-.7 1.5 1.5 0 0 1 1.1.7 1.5 1.5 0 0 1 1.1-.7 1.5 1.5 0 0 1 1.1.7c1.1 1.3-1.4 2.9-2.1 3.3a4.8 4.8 0 0 0 1.7.4 2.1 2.1 0 0 0 1.2-.3 2.6 2.6 0 0 0 1-1.9h1.3a3.8 3.8 0 0 0 .9-3.1L23 9c2.4 0 3-2.7 3-2.7L19.4 0z"/></g></svg>