<?xml version="1.0" encoding="utf-8"?>
<!-- Generator: Adobe Illustrator 21.0.2, SVG Export Plug-In . SVG Version: 6.00 Build 0)  -->
<svg version="1.1" id="Layer_1" xmlns="http://www.w3.org/2000/svg" xmlns:xlink="http://www.w3.org/1999/xlink" x="0px" y="0px"
	 viewBox="0 0 250 159.7" style="enable-background:new 0 0 250 159.7;" xml:space="preserve">
<style type="text/css">
	.st0{fill:#FFFFFF;}
</style>
<g>
	<path class="st0" d="M201.6,67.1L182,51.5l-13.1,10.8h-21.3c-0.6,2.7-2.1,6.9-5.9,9.4c-2.3,1.4-4.9,2.2-7.6,2.1
		c-3-0.1-5.9-0.6-8.7-1.7c-2.8,1.1-5.7,1.6-8.7,1.7c-2.7,0.1-5.3-0.7-7.6-2.1c-3.9-2.5-5.4-6.7-5.9-9.4H81.7L68.5,51.5L49,67.1
		l5.6,6.7L49,80.5l19.5,15.6l13.2-10.7h87.2L182,96.1l19.6-15.6l-5.6-6.7L201.6,67.1z"/>
	<path class="st0" d="M87.4,45.2c2.6,0,5.2-0.5,7.6-1.5l0.2-0.3c-0.5,5.8,0.5,11.5,4.5,15.7h6.5v0.5c0,0.1,0.3,6.5,4.8,9.5
		c1.7,1.1,3.8,1.7,5.8,1.6c2.8-0.1,5.5-0.7,8.1-1.7c-3-1.8-16.1-10.2-10.7-16.8c2.1-2.5,4-3.3,5.6-3.3c3.3,0,5.4,3.3,5.4,3.3
		s2.1-3.3,5.4-3.3c1.6,0,3.5,0.8,5.6,3.3c5.4,6.5-7.1,14.7-10.5,16.7c2.7,1.1,5.5,1.7,8.4,1.8c2,0.1,4.1-0.5,5.8-1.6
		c4.6-3,4.8-9.4,4.8-9.5V59h6.5c3.9-4,4.9-9.6,4.5-15.3c2.4,0.9,4.9,1.5,7.5,1.5c12,0,15.1-13.4,15.1-13.4L145.7,0L133,12.1h-15.4
		L104.8,0L72.3,31.8C72.3,31.8,75.4,45.2,87.4,45.2z"/>
	<path class="st0" d="M133,12.1h-15.4L104.8,0L72.3,31.8c0,0,3.1,13.4,15.1,13.4c2.6,0,5.2-0.5,7.6-1.5l0.2-0.3
		c-0.5,5.8,0.5,11.5,4.5,15.7h6.5v0.5c0,0.1,0.3,6.5,4.8,9.5c1.7,1.1,3.8,1.7,5.8,1.6c2.8-0.1,5.5-0.7,8.1-1.7
		c-3-1.8-16.1-10.2-10.7-16.8c2.1-2.5,4-3.3,5.6-3.3c3.3,0,5.4,3.3,5.4,3.3s2.1-3.3,5.4-3.3c1.6,0,3.5,0.8,5.6,3.3
		c5.4,6.5-7.1,14.7-10.5,16.7c2.7,1.1,5.5,1.7,8.4,1.8c2,0.1,4.1-0.5,5.8-1.6c4.6-3,4.8-9.4,4.8-9.5V59h6.5c3.9-4,4.9-9.6,4.5-15.3
		c2.4,0.9,4.9,1.5,7.5,1.5c12,0,15.1-13.4,15.1-13.4L145.7,0L133,12.1z M25.2,151.9c-3.3,0-5.7-2.5-8.2-5.1c-2.1,3-5.5,4.8-9.2,4.7
		c-5.2,0-7.8-3.1-7.8-6.6s2.4-6.3,6.9-6.3c2,0,4.6,1.1,7.3,2.5c0.9-2,1.8-4.4,3-7.3c-7.9-1-13.6-5.5-13.6-13.4s5.4-19.6,13-19.6
		c3.7,0,5.6,2.5,5.6,5.6c0,8.7-5.9,15.6-8.6,15.6c-0.6,0-1.1-0.4-1.2-0.9c2.3-3,5.9-12.2,5.9-16.5c0-1.1-0.3-1.8-0.8-2.1
		c-3.7,1.4-8.5,11-8.5,18s2.2,9.7,9.1,11.2c3.6-9.3,8.4-21.6,12-28.1c1.6-2.9,4.5-7.3,7.6-7.3c3.9,0.1,7.1,3.3,7,7.2c0,0,0,0,0,0
		c0,10.2-7.4,28.1-21.3,30.3c-1.3,3.5-2.9,6.8-4.6,10.1c3.2,1.9,5.9,2.9,8.1,2.9s4.1-1.4,5-4c0.8,0,1.1,0.5,1.1,1.6
		c-0.2,4.2-3.7,7.6-7.9,7.5L25.2,151.9z M7.9,149.6c2.1-1.1,3.7-3.1,5.2-6.2c-1.6-1.3-3.6-2.2-5.6-2.6c-1.7,0.7-2.5,2.4-2.5,4.4
		S6,149.1,7.9,149.6L7.9,149.6z M24.4,131.4c10.3-3.9,15.5-21.9,15.5-29.4c0-1.7-0.3-2.9-0.8-3.2c-3,1.2-9,17.5-12.5,27.1
		L24.4,131.4z M38.2,135.5c0-5,3.2-12.6,6.6-17.6c0.8-1.3,2.1-2.1,3.6-2.2c0.8,0,1.6,0.3,2.1,0.9c-3.5,5.7-7.4,16.9-7.4,21
		c-0.1,1,0.3,2,0.9,2.8c2.6-0.7,9.5-16.7,9.3-24.7c-2.8-0.5-4.7-1.8-4.7-3.4c0.4-1.3,1.5-2.2,2.8-2.4c2.4,0,5.2,2.2,6.3,4.8h6.7
		c0.1,0.2,0.1,0.5,0.1,0.7c0,1-1.2,1.7-3,1.7c-1.2,0-2.3-0.2-3.4-0.6c0.1,0.2,0.1,0.3,0.1,0.5c0,7.4-6.7,25.4-14.2,25.4
		C40.5,142.2,38.2,139.9,38.2,135.5L38.2,135.5z"/>
	<path class="st0" d="M49.9,153.2c0-3.3,2.2-6.7,9.5-8.2l5-1.2c1.6-4.3,3.1-8.8,4.4-12.1c-2.6,5.7-5.4,10-8.2,10s-4.4-1-4.4-3.7
		c0-5.5,7.5-18,7.6-21.9l-2.1,0.3c-1.1,0-1.5-0.4-1.5-1c0-0.2,0.1-0.5,0.2-0.7c1.6,0.1,3.2-0.3,4.6-0.3c1.4,0,2.9,1.1,2.9,4.1
		s-7.5,17.5-7,20.4c3.3-0.2,9.9-13.4,13.5-24.3h1.5c1.6,0,2.8,0.3,2.8,1.3s-2,6.3-3.7,11.4c-0.7,2.1-2.4,7.2-4.7,13.4
		c6.3-5.8,9.5-13.2,12.9-21.3c0.4-0.1,0.4,0.1,0.4,0.3c0,2.7-6.2,19.3-14.1,23.2c-0.9,2.4-1.8,4.9-2.9,7.4c-2.2,5.5-6.1,9.2-9.1,9.2
		C52.5,159.7,49.9,156.6,49.9,153.2L49.9,153.2z M63.7,145.8l-2.3,0.9c-4,1.4-6.6,2.8-6.6,5.9c-0.1,2.3,1.6,4.2,3.9,4.3c0,0,0,0,0,0
		C59.9,155.9,61.7,151.2,63.7,145.8L63.7,145.8z"/>
	<path class="st0" d="M86.9,139c0-1.4,1.2-4.2,2.3-7.4c-3,5.9-5.4,10.6-8,10.6c-2.3-0.1-4.2-2-4.3-4.3c0-3.1,1.2-7.6,2.8-11.7
		c2.5-6.3,5.5-12.2,9.2-12.2c2.4,0.2,4.3,2.3,4.4,4.7l1.6-4.2c2.2-0.1,4,0.1,4,2.1s-1.6,6-3.4,10.7c-1.8,4.7-4.3,10.2-4.9,12.6
		c3.5-1.4,9.7-12.3,13.1-20.6c0.4-0.1,0.4,0.1,0.4,0.3c0,2.7-8.8,22.5-14,22.5C88.4,141.9,87.1,140.6,86.9,139z M89.1,128.3
		c1.3-2.8,2.9-5.9,2.9-7.9s-0.8-2.9-1.7-2.9s-2.4,2.2-6.1,11.3c-2,4.8-3,9.6-2.8,11.1C83.4,138.9,86.3,133.9,89.1,128.3z"/>
	<path class="st0" d="M97.7,137.9c0-10,12.5-41.3,20.3-41.3c1.4,0.2,2.4,1.3,2.5,2.7c0,7.2-8.7,26.7-15.9,28.6
		c-1.2,4-2.1,7.3-2.1,9.5c0,0.8,0.1,1.6,0.5,2.3c2.3-1.1,4.3-3.8,5.7-6.5c0.4-0.1,0.8,0.1,0.8,0.6c0,2.3-4.2,8.5-7.5,8.5
		C99.7,142.1,97.8,140.3,97.7,137.9L97.7,137.9z M105.3,125.9c4.6-2.9,14.1-26.1,13.4-27.4c-2.3,0.9-7.9,11.8-11.7,22.3
		C106.5,122.5,105.9,124.2,105.3,125.9z M151.6,151.9c-4.1,0-3.9-5-3.6-9.8c0.2-3.1,0.3-6.1-0.7-7.6h-1.2
		c-3.7,9.6-8.4,17.1-16.6,17.1s-10.9-6.1-10.8-13c0.1-8.8,5.6-19,14.4-19c4.1,0,6,3.3,6,7.3c0,6.5-4.1,14.3-9.9,14.3
		c-1,0-1.9-0.4-2.1-1.2c4.5-3.7,8-11.2,8-15.8c0.1-1.1-0.3-2.1-1-2.9c-5.9,1.7-9.8,10.4-9.8,17.9c0,4.8,1.7,9.1,5.5,10.6
		c7.4-4,11.2-15.5,15.6-28.1l3.1-8.7c1.5-4.1,3.6-5.9,5.6-5.9c0.7-0.1,1.4,0.3,1.7,1c-1.2,0.9-2,3.7-2.4,4.7
		c-2.2,6.2-4.1,13-6.2,19.3c0.4,0.2,0.8,0.4,1.1,0.8c6.4-3.9,13.5-19,13.6-28.6c0-2.2-0.3-4-1.4-5.1c-7.8,0-19.4,15.5-28.6,15.5
		c-4.2,0-5.9-2.9-5.9-6.2c0-1.6,0.7-2.9,2-3c0.5,1.7,1.4,3.5,4.1,3.5c6.6,0,19.8-12.3,26.9-12.3s8.5,4.4,8.5,8.7
		c0,7.4-7.1,25.4-17.5,28.8c2.7,1.8,3.5,5.3,3.3,9.8c-0.1,2.2,0,4.2,0.4,5.1c0.9-0.2,1.7-0.7,2.3-1.3c0.5,0.1,0.8,0.3,0.8,1
		S154.3,151.9,151.6,151.9L151.6,151.9z M186.4,117.4c0.5-0.1,1.1,0.1,1.1,0.7c0,2.2-7.8,24.3-18.2,24.3c-4.2,0-7.7-2.5-7.7-6.2
		c0-5.5,3.1-14.5,7.3-19.3c1.4-1.8,3.5-2.8,5.7-2.8c2.8,0,5.8,1.4,5.8,5.3s-5.5,15.6-12.2,15.6l-1.5-0.2c-0.1,0.6-0.1,1.1-0.1,1.6
		c-0.1,1.6,0.8,3,2.3,3.5C174,138.8,182.3,127.3,186.4,117.4L186.4,117.4z M167.1,133.2c4.9-0.8,9.7-11.9,9.7-15.8
		c0-0.4-0.1-0.9-0.4-1.2C173.8,116.3,168.6,126.5,167.1,133.2z"/>
	<path class="st0" d="M183.5,142.3c-4.1,0-6.1-2.3-6.1-4.4c-0.2-1.2,0.6-2.3,1.8-2.5c1,1.7,2.5,4,3.6,4.6c1.7-1.6,3.3-7.3,3.7-18.8
		c0.1-1.4-0.8-1.6-0.8-2.2c0-0.1,0-0.3,0.1-0.4c3.5-8.9,5.2-12.1,8-12.1s3.3,2.1,3.9,4.4c-3.2,1.5-8.6,3.8-8.6,7s1.8,7.9,1.7,13
		c0,1.7-0.2,3.4-0.7,5c3.1-4,6.2-10.8,8.6-16.4c0.4-0.1,0.4,0.1,0.4,0.3C199.1,122.6,191.9,142.3,183.5,142.3L183.5,142.3z"/>
	<path class="st0" d="M200.2,142.3c-4.3,0-7.6-2.5-7.6-6.3c0-6.2,3.4-17.1,8.5-21c1.2-0.7,2.5-1,3.8-1c3.2,0,6.1,2,6.1,6
		s-2.4,11.1-6.5,11.1c-1,0-1.9-0.6-2.2-1.5c1.7-2,4.7-8.9,4.7-12.2c0-0.7-0.1-1.2-0.4-1.4c-2.8,0.2-8.7,13.3-8.7,20
		c-0.1,1.3,0.4,2.6,1.3,3.5c7-1.2,13.3-11.8,16.8-20c0.4-0.1,0.4,0.1,0.4,0.3C216.5,122.6,207.5,142.3,200.2,142.3L200.2,142.3z"/>
	<path class="st0" d="M213.6,142.5c-1.7,0-4.2-1-4.2-3.6c0-5.7,7.2-18.9,7.8-22.7c-0.7,0.2-1.5,0.4-2.3,0.4c-1,0-1.4-0.4-1.4-0.9
		c0-0.3,0.1-0.5,0.2-0.8c1.6,0.1,3.2-0.3,4.6-0.3c1.8-0.1,3.3,1.4,3.4,3.2c0,0.1,0,0.3,0,0.4c0,3-7.5,16.8-7.5,21.2
		c0,0.2,0,0.3,0.1,0.5c2.1-0.1,5.8-5.5,8.9-11.9c2-4.3,3.7-8.6,5.2-13.1l2-0.2c1.2,0,2.1,0.4,2.1,1.4s-1.6,6.5-3.5,11.4
		c-1.9,4.9-4.4,10.4-5.1,12.5c5.4-2.2,10.4-12.4,13.8-20.4c0.4-0.1,0.4,0.1,0.4,0.3c0,2.7-8.3,22.5-14.7,22.5
		c-1.8,0.1-3.4-1.4-3.5-3.2c0.2-1.7,0.8-3.4,1.5-4.9C218.4,139.6,215.7,142.5,213.6,142.5z"/>
	<path class="st0" d="M238.9,142.3c-4.2,0-7.7-2.5-7.7-6.2c0-5.5,3.1-14.5,7.3-19.3c1.4-1.8,3.5-2.8,5.7-2.8c2.8,0,5.8,1.4,5.8,5.3
		s-5.5,15.6-12.2,15.6l-1.5-0.2c-0.1,0.6-0.1,1.1-0.1,1.6c-0.1,1.4,0.6,2.7,1.9,3.3c3.6-0.4,6.7-3.5,8.5-6.6
		c0.4-0.1,0.8,0.1,0.8,0.6C247.3,136.1,242.6,142.3,238.9,142.3L238.9,142.3z M236.6,133.2c4.9-0.8,9.7-11.9,9.7-15.8
		c0-0.4-0.1-0.9-0.4-1.2C243.3,116.3,238.1,126.5,236.6,133.2z"/>
</g>
</svg>
